{
  "source": "C:\\Users\\Peter\\Desktop\\stuff\\MIUN\\quantitative_research\\video_compression\\videos\\BVI-HD\\BVI-HD_CDVL_videos\\ORIG\\Grass_1920x1080_60fps.mp4",
  "output": "C:\\Users\\Peter\\Desktop\\stuff\\MIUN\\quantitative_research\\video_compression\\compressed_videos\\BVI-HD\\h264\\2.5\\Grass_1920x1080_60fps_h264.mp4",
  "codec": "h264",
  "ok": "Input #0, mov,mp4,m4a,3gp,3g2,mj2, from 'C:\\Users\\Peter\\Desktop\\stuff\\MIUN\\quantitative_research\\video_compression\\videos\\BVI-HD\\BVI-HD_CDVL_videos\\ORIG\\Grass_1920x1080_60fps.mp4':\n  Metadata:\n    major_brand     : isom\n    minor_version   : 512\n    compatible_brands: isomiso2avc1mp41\n    encoder         : Lavf54.28.101\n  Duration: 00:00:05.00, start: 0.000000, bitrate: 655968 kb/s\n  Stream #0:0[0x1](und): Video: h264 (High 4:4:4 Predictive) (avc1 / 0x31637661), yuv420p(progressive), 1920x1080, 655963 kb/s, 60 fps, 60 tbr, 60 tbn (default)\n    Metadata:\n      handler_name    : VideoHandler\n      vendor_id       : [0][0][0][0]\n[out#0/mp4 @ 000001b3ebdf9b40] Codec AVOption b:a (set bitrate (in bits/s)) has not been used for any stream. The most likely reason is either wrong type (e.g. a video option with no video streams) or that it is a private option of some decoder which was not actually used for any stream.\nStream mapping:\n  Stream #0:0 -> #0:0 (h264 (native) -> h264 (libx264))\nPress [q] to stop, [?] for help\n[libx264 @ 000001b3eca20300] using cpu capabilities: MMX2 SSE2Fast SSSE3 SSE4.2 AVX FMA3 BMI2 AVX2\n[libx264 @ 000001b3eca20300] profile High, level 5.0, 4:2:0, 8-bit\n[libx264 @ 000001b3eca20300] 264 - core 165 r3222 b35605a - H.264/MPEG-4 AVC codec - Copyleft 2003-2025 - http://www.videolan.org/x264.html - options: cabac=1 ref=5 deblock=1:0:0 analyse=0x3:0x113 me=hex subme=8 psy=1 psy_rd=1.00:0.00 mixed_ref=1 me_range=16 chroma_me=1 trellis=2 8x8dct=1 cqm=0 deadzone=21,11 fast_pskip=1 chroma_qp_offset=-2 threads=18 lookahead_threads=3 sliced_threads=0 nr=0 decimate=1 interlaced=0 bluray_compat=0 constrained_intra=0 bframes=3 b_pyramid=2 b_adapt=1 b_bias=0 direct=3 weightb=1 open_gop=0 weightp=2 keyint=250 keyint_min=25 scenecut=40 intra_refresh=0 rc_lookahead=50 rc=cbr mbtree=1 bitrate=2500 ratetol=1.0 qcomp=0.60 qpmin=0 qpmax=69 qpstep=4 vbv_maxrate=2500 vbv_bufsize=2500 nal_hrd=none filler=0 ip_ratio=1.40 aq=1:1.00\nOutput #0, mp4, to 'C:\\Users\\Peter\\Desktop\\stuff\\MIUN\\quantitative_research\\video_compression\\compressed_videos\\BVI-HD\\h264\\2.5\\Grass_1920x1080_60fps_h264.mp4':\n  Metadata:\n    major_brand     : isom\n    minor_version   : 512\n    compatible_brands: isomiso2avc1mp41\n    encoder         : Lavf62.3.100\n  Stream #0:0(und): Video: h264 (avc1 / 0x31637661), yuv420p(tv, progressive), 1920x1080, q=2-31, 2500 kb/s, 60 fps, 15360 tbn (default)\n    Metadata:\n      encoder         : Lavc62.11.100 libx264\n      handler_name    : VideoHandler\n      vendor_id       : [0][0][0][0]\n    Side data:\n      cpb: bitrate max/min/avg: 2500000/0/2500000 buffer size: 2500000 vbv_delay: N/A\nframe=    0 fps=0.0 q=0.0 size=       0KiB time=N/A bitrate=N/A speed=N/A elapsed=0:00:00.52    \nframe=    0 fps=0.0 q=0.0 size=       0KiB time=N/A bitrate=N/A speed=N/A elapsed=0:00:01.08    \nframe=    6 fps=3.7 q=49.0 size=       0KiB time=00:00:00.01 bitrate=  23.0kbits/s speed=0.0103x elapsed=0:00:01.61    \nframe=   46 fps= 21 q=43.0 size=       0KiB time=00:00:00.60 bitrate=   0.6kbits/s speed=0.279x elapsed=0:00:02.14    \nframe=   76 fps= 28 q=43.0 size=     256KiB time=00:00:01.23 bitrate=1700.7kbits/s speed=0.449x elapsed=0:00:02.74    \nframe=  108 fps= 33 q=42.0 size=     256KiB time=00:00:01.70 bitrate=1233.8kbits/s speed=0.514x elapsed=0:00:03.30    \nframe=  132 fps= 34 q=42.0 size=     256KiB time=00:00:02.15 bitrate= 975.6kbits/s speed=0.556x elapsed=0:00:03.86    \nframe=  160 fps= 36 q=42.0 size=     512KiB time=00:00:02.63 bitrate=1592.9kbits/s speed=0.596x elapsed=0:00:04.41    \nframe=  187 fps= 38 q=42.0 size=     512KiB time=00:00:03.08 bitrate=1360.4kbits/s speed=0.621x elapsed=0:00:04.96    \nframe=  222 fps= 40 q=42.0 size=     768KiB time=00:00:03.60 bitrate=1747.7kbits/s speed=0.648x elapsed=0:00:05.55    \nframe=  250 fps= 41 q=43.0 size=     768KiB time=00:00:04.13 bitrate=1522.2kbits/s speed=0.676x elapsed=0:00:06.11    \nframe=  297 fps= 45 q=-1.0 size=    1024KiB time=00:00:04.90 bitrate=1712.0kbits/s speed=0.74x elapsed=0:00:06.62    \n[mp4 @ 000001b3ebe87ac0] Starting second pass: moving the moov atom to the beginning of the file\n[out#0/mp4 @ 000001b3ebdf9b40] video:1141KiB audio:0KiB subtitle:0KiB other streams:0KiB global headers:0KiB muxing overhead: 0.382566%\nframe=  300 fps= 45 q=-1.0 Lsize=    1146KiB time=00:00:04.96 bitrate=1889.7kbits/s speed=0.749x elapsed=0:00:06.62    \n[libx264 @ 000001b3eca20300] frame I:2     Avg QP:38.75  size:134268\n[libx264 @ 000001b3eca20300] frame P:76    Avg QP:40.81  size:  9229\n[libx264 @ 000001b3eca20300] frame B:222   Avg QP:45.65  size:   892\n[libx264 @ 000001b3eca20300] consecutive B-frames:  1.3%  0.0%  0.0% 98.7%\n[libx264 @ 000001b3eca20300] mb I  I16..4:  1.5% 89.0%  9.4%\n[libx264 @ 000001b3eca20300] mb P  I16..4:  0.0%  0.1%  0.0%  P16..4: 18.9%  4.4% 11.5%  0.0%  0.0%    skip:65.0%\n[libx264 @ 000001b3eca20300] mb B  I16..4:  0.0%  0.0%  0.0%  B16..8: 14.8%  0.1%  0.0%  direct: 0.0%  skip:85.1%  L0: 6.9% L1:93.1% BI: 0.0%\n[libx264 @ 000001b3eca20300] 8x8 transform intra:89.3% inter:77.5%\n[libx264 @ 000001b3eca20300] direct mvs  spatial:95.5% temporal:4.5%\n[libx264 @ 000001b3eca20300] coded y,uvDC,uvAC intra: 90.3% 95.7% 76.6% inter: 1.7% 2.7% 0.2%\n[libx264 @ 000001b3eca20300] i16 v,h,dc,p: 38% 22% 17% 23%\n[libx264 @ 000001b3eca20300] i8 v,h,dc,ddl,ddr,vr,hd,vl,hu:  6%  3%  3% 13% 18% 16% 15% 13% 13%\n[libx264 @ 000001b3eca20300] i4 v,h,dc,ddl,ddr,vr,hd,vl,hu:  5%  2%  1% 13% 19% 17% 16% 12% 13%\n[libx264 @ 000001b3eca20300] i8c dc,h,v,p: 59% 13% 13% 15%\n[libx264 @ 000001b3eca20300] Weighted P-Frames: Y:0.0% UV:0.0%\n[libx264 @ 000001b3eca20300] ref P L0: 81.9%  3.7%  8.7%  2.0%  3.7%\n[libx264 @ 000001b3eca20300] ref B L0: 91.1%  7.1%  1.1%  0.7%\n[libx264 @ 000001b3eca20300] ref B L1: 92.9%  7.1%\n[libx264 @ 000001b3eca20300] kb/s:1868.68\n",
  "seconds": 6.977255582809448,
  "probe_out": {}
}